<svg width="40" height="36" viewBox="0 0 40 36" fill="none" xmlns="http://www.w3.org/2000/svg">
<path d="M27.6268 21.5147L27.63 21.4957L27.6268 21.5147ZM27.6268 21.5147L27.5459 21.9886C27.5459 21.9886 27.5459 21.9886 27.5459 21.9886M27.6268 21.5147L27.5459 21.9886M27.5459 21.9886C31.5427 22.671 33.8772 24.1182 34.7372 25.7922C35.5668 27.4069 35.1242 29.4656 32.9745 31.6786L33.3331 32.027L27.5459 21.9886ZM14.9791 9.67629C16.9608 12.262 18.602 14.8736 19.5 16.7088V26.2734C19.4915 26.291 19.4843 26.3071 19.4786 26.3205C19.4282 26.4369 19.3594 26.6393 19.2802 26.872L19.2704 26.9009L19.2703 26.9013C19.0343 27.5966 18.6346 28.7731 18.0379 30.0186C17.4387 31.2692 16.6567 32.5549 15.6729 33.4838C14.6977 34.4047 13.5527 34.9517 12.1894 34.8113C10.8058 34.6688 9.09472 33.8088 7.02552 31.6786L7.02551 31.6786C4.87575 29.4656 4.43324 27.4069 5.26279 25.7922C6.12276 24.1182 8.45734 22.671 12.4541 21.9886C12.4541 21.9886 12.4541 21.9886 12.4542 21.9886L12.37 21.4957L12.2859 21.0029C10.0392 21.3863 7.68265 21.2548 5.73463 20.4336C3.80345 19.6194 2.26172 18.1254 1.59287 15.727L1.59282 15.7269C1.50289 15.4048 1.3857 14.6053 1.26087 13.5168C1.13813 12.4466 1.01253 11.1415 0.899528 9.84149C0.672472 7.22932 0.5 4.6799 0.5 4.09385C0.5 2.6215 0.823119 1.72946 1.26822 1.21308C1.70065 0.711394 2.31448 0.488702 3.08694 0.500434C4.67959 0.524623 6.74108 1.551 8.36978 2.77759C10.6112 4.46606 12.9591 7.0407 14.9791 9.67629ZM19.4998 26.513C19.4998 26.5119 19.4999 26.5129 19.5 26.5163L19.4998 26.513ZM19.5061 26.5607C19.5024 26.5427 19.5009 26.5283 19.5002 26.5201H19.937C19.9046 26.5952 19.8595 26.7232 19.8009 26.8944C19.7251 26.8577 19.6799 26.8116 19.6676 26.799L19.6674 26.7988C19.6332 26.764 19.6141 26.7333 19.6093 26.7254C19.5979 26.7069 19.5957 26.6992 19.6036 26.7174C19.6122 26.7373 19.6225 26.7637 19.6349 26.7969C19.606 26.7679 19.5842 26.7392 19.5694 26.7158C19.5225 26.6421 19.5092 26.576 19.5062 26.5611L19.5061 26.5607ZM20.063 26.5201C20.0954 26.5952 20.1405 26.7232 20.1991 26.8944C20.2749 26.8577 20.3201 26.8116 20.3324 26.799L20.3326 26.7988C20.3668 26.764 20.3859 26.7333 20.3907 26.7254C20.4021 26.7069 20.4043 26.6992 20.3964 26.7174C20.3878 26.7373 20.3775 26.7637 20.3651 26.7969C20.394 26.7679 20.4158 26.7392 20.4306 26.7158C20.4775 26.6421 20.4908 26.576 20.4938 26.5611L20.4939 26.5607C20.4976 26.5427 20.4991 26.5283 20.4998 26.5201H20.063ZM20.5 16.7088C21.398 14.8736 23.0392 12.262 25.0209 9.67629C27.0409 7.04073 29.3888 4.46612 31.6301 2.77766C33.2592 1.55101 35.3207 0.524623 36.9133 0.500434C37.6857 0.488702 38.2995 0.711388 38.7319 1.21306C39.1769 1.72944 39.5 2.62149 39.5 4.09385C39.5 4.6799 39.3275 7.22932 39.1005 9.84149C38.9875 11.1415 38.8619 12.4466 38.7391 13.5168C38.6143 14.6053 38.4971 15.4048 38.4072 15.7269L38.4071 15.727C37.7383 18.1254 36.1966 19.6194 34.2654 20.4336C32.3173 21.2548 29.9608 21.3863 27.7141 21.0029L27.6332 21.4767L20.5 16.7088Z" fill="#3E22ED" stroke="#3E22ED"/>
</svg>
