<svg width="41" height="40" viewBox="0 0 41 40" fill="none" xmlns="http://www.w3.org/2000/svg">
<path d="M8.05104 3.45447L8.05102 3.45445C7.26989 2.79054 6.37595 2.17198 5.48646 1.72052C4.58461 1.26279 3.75609 1.01185 3.08738 1.00041C2.45952 0.989663 2.01371 1.18316 1.68705 1.61082C1.32125 2.08971 1 2.99945 1 4.63461C1 5.28128 1.17167 8.15163 1.39986 11.1134C1.51311 12.5834 1.63887 14.0576 1.76155 15.265C1.88758 16.5054 2.00296 17.3819 2.08547 17.7157L2.08549 17.7157C2.73047 20.3254 4.197 21.8985 5.98772 22.7504C7.81373 23.619 10.0524 23.7698 12.2206 23.3521C12.2206 23.3521 12.2206 23.3521 12.2206 23.3521L12.4098 24.334L12.5989 25.316C11.3028 25.5657 9.9469 25.646 8.6186 25.5085C3.76197 27.7619 3.03172 32.0095 6.68806 36.257C14.5081 45.3411 18.2645 35.5434 19.541 31.5069L8.05104 3.45447ZM8.05104 3.45447C10.2523 5.3253 12.5808 8.20088 14.5985 11.1716C16.6126 14.1371 18.2688 17.1256 19.1453 19.1782L20.0649 21.3317L20.9846 19.1783C21.8612 17.1258 23.5174 14.1372 25.5314 11.1717C27.5491 8.2009 29.8776 5.32526 32.0789 3.45449L32.0789 3.45447C32.8601 2.79054 33.754 2.17198 34.6435 1.72052C35.5453 1.26278 36.3738 1.01185 37.0425 1.00041C37.6703 0.989664 38.116 1.18314 38.4427 1.61079C38.8085 2.08969 39.1297 2.99944 39.1297 4.63461C39.1297 5.28136 38.958 8.15174 38.7298 11.1135C38.6166 12.5836 38.4908 14.0577 38.3681 15.2651C38.2421 16.5054 38.1267 17.3819 38.0442 17.7156L38.0442 17.7157C37.3991 20.3254 35.9325 21.8985 34.1418 22.7504C32.3158 23.619 30.0772 23.7698 27.9091 23.3521L27.7199 24.334M8.05104 3.45447L27.7199 24.334M27.7199 24.334L27.5307 25.316C31.4511 26.0713 33.6084 27.6457 34.3861 29.3539C35.137 31.0031 34.771 33.1798 32.6838 35.6046C30.6342 37.9855 29.0251 38.8407 27.8372 38.9787C26.7061 39.1102 25.7121 38.6147 24.7912 37.6333C23.8578 36.6388 23.0965 35.2376 22.5015 33.8367C21.9119 32.4484 21.5159 31.1345 21.2789 30.3475C21.1858 30.038 21.1027 29.8208 21.0221 29.662L27.7199 24.334Z" fill="#C0BAF3" stroke="#3E22ED" stroke-width="2"/>
</svg>
