<svg width="49" height="44" viewBox="0 0 49 44" fill="none" xmlns="http://www.w3.org/2000/svg">
<path d="M15.1406 25.0168C10.1328 25.5792 4.69531 23.8449 3.17187 18.7122C2.71094 17.1576 2 7.85313 2 6.5641C2 5.27507 2.25781 3.07982 3.6875 2.4314C4.92969 1.86891 6.8125 1.26736 11.7578 4.75946C16.9141 8.39999 22.4609 15.7826 24.5 19.7435C26.5391 15.7826 32.0859 8.39999 37.25 4.75946C42.1875 1.26736 44.0781 1.87672 45.3125 2.4314C46.7422 3.072 47 5.26726 47 6.5641C47 7.86094 46.2891 17.1576 45.8281 18.7122C44.2969 23.8371 38.8672 25.5714 33.8594 25.0168M15.1406 25.0168C15.3984 24.9777 15.6563 24.9464 15.9219 24.9074C15.6641 24.9464 15.4063 24.9855 15.1406 25.0168ZM15.1406 25.0168C7.80469 26.1105 1.28906 28.7823 9.83594 38.2898C19.2344 48.024 22.7109 36.204 24.5 30.2119C26.2891 36.204 28.3438 47.5943 39 38.2898C47 30.2119 41.1953 26.1027 33.8594 25.0168M33.8594 25.0168C33.6016 24.9855 33.3359 24.9543 33.0781 24.9152C33.3438 24.9464 33.6016 24.9855 33.8594 25.0168ZM33.8594 25.0246C33.6016 24.9933 33.3359 24.9621 33.0781 24.923C33.3438 24.9543 33.6016 24.9933 33.8594 25.0246Z" stroke="#3E22ED" stroke-width="3"/>
</svg>
