<svg width="42" height="42" viewBox="0 0 42 42" fill="none" xmlns="http://www.w3.org/2000/svg">
<circle cx="21" cy="21" r="18" fill="#C0BAF3"/>
<path d="M14.1076 3.67497C19.518 10.0517 30.3389 25.7835 30.3389 37.6975M14.1076 3.67497C22.4499 0.0489164 29.9115 2.69118 34.6568 7.95301M14.1076 3.67497C4.27223 8.82064 2.9131 15.1973 2.23916 19.0113M30.3389 37.6975C36.7066 34.0499 39.6146 28.5155 39.9639 22.8858M30.3389 37.6975C23.0706 41.8609 14.4737 40.0028 8.67006 35.1245M34.6568 7.95301C31.8113 11.7736 21.344 19.3342 2.23916 19.0113M34.6568 7.95301C38.2629 11.9516 40.3004 17.4629 39.9639 22.8858M2.23916 19.0113C1.12824 25.2968 3.9916 31.192 8.67006 35.1245M39.9639 22.8858C34.2533 20.5382 19.9995 19.6992 8.67006 35.1245" stroke="#3E22ED" stroke-width="3"/>
</svg>
