<svg width="40" height="42" viewBox="0 0 40 42" fill="none" xmlns="http://www.w3.org/2000/svg">
<path d="M34.3889 7.42857C35.5309 7.66667 38.5 8.14286 38.5 11.7143L37.1296 36.7143C36.4444 40.2857 34.3889 41 30.963 41C27.087 41 17.0309 40.7619 12.463 40.2857M10.4074 11.7143C10.4074 7.42857 18.8519 5.72994 20 11.7143C20.6852 15.2857 15.8889 16.7143 15.8889 17.4286V20M15.8889 26.7143V26M5.5 33.1429H24.2222C26.4314 33.1429 28.2222 31.352 28.2222 29.1429V5C28.2222 2.79086 26.4314 1 24.2222 1H5.5C3.29086 1 1.5 2.79086 1.5 5V29.1429C1.5 31.352 3.29086 33.1429 5.5 33.1429Z" stroke="#2A16A4" stroke-width="2" stroke-linecap="round" stroke-linejoin="round"/>
</svg>
