<svg width="31" height="35" viewBox="0 0 31 35" fill="none" xmlns="http://www.w3.org/2000/svg">
<path d="M28.6743 3.44449H2.22225C1.54722 3.44449 1 2.89727 1 2.22225C1 1.54722 1.54722 1 2.22225 1H28.6743C29.3493 1 29.8966 1.54722 29.8966 2.22225C29.8966 2.89727 29.3493 3.44449 28.6743 3.44449Z" fill="#3E22ED" stroke="#3E22ED" stroke-width="2" stroke-linejoin="round"/>
<path d="M28.6743 10.8888H2.22225C1.54722 10.8888 1 10.3416 1 9.66658C1 8.99155 1.54722 8.44434 2.22225 8.44434H28.6743C29.3493 8.44434 29.8966 8.99155 29.8966 9.66658C29.8966 10.3416 29.3493 10.8888 28.6743 10.8888Z" fill="#3E22ED" stroke="#3E22ED" stroke-width="2" stroke-linejoin="round"/>
<path d="M1 31.5524V17.8892C1 16.7846 1.89543 15.8892 3 15.8892H27.8966C29.0011 15.8892 29.8966 16.7846 29.8966 17.8892V31.5524C29.8966 33.1435 28.1287 34.0976 26.7987 33.2242L17.644 27.2122C16.311 26.3368 14.5855 26.3368 13.2526 27.2122L4.09785 33.2242C2.76787 34.0976 1 33.1435 1 31.5524Z" fill="#3E22ED" stroke="#3E22ED" stroke-width="2" stroke-linejoin="round"/>
</svg>
