<svg width="34" height="41" viewBox="0 0 34 41" fill="none" xmlns="http://www.w3.org/2000/svg">
<path d="M29.8042 5.44449H3.35213C2.12482 5.44449 1.12988 4.44956 1.12988 3.22225C1.12988 1.99493 2.12482 1 3.35213 1H29.8042C31.0315 1 32.0264 1.99493 32.0264 3.22225C32.0264 4.44956 31.0315 5.44449 29.8042 5.44449Z" fill="#C0BAF3" stroke="#3E22ED" stroke-width="2" stroke-linejoin="round"/>
<path d="M1.12988 35.4406V21.7773C1.12988 20.1205 2.47303 18.7773 4.12988 18.7773H29.0264C30.6833 18.7773 32.0264 20.1205 32.0264 21.7773V35.4406C32.0264 37.8273 29.3746 39.2583 27.3797 37.9482L18.2249 31.9362C17.2252 31.2797 15.9311 31.2797 14.9314 31.9362L5.77666 37.9482C3.7817 39.2583 1.12988 37.8273 1.12988 35.4406Z" fill="#C0BAF3" stroke="#3E22ED" stroke-width="2" stroke-linejoin="round"/>
<path d="M29.8042 14.3332H3.35213C2.12482 14.3332 1.12988 13.3382 1.12988 12.1109C1.12988 10.8836 2.12482 9.88867 3.35213 9.88867H29.8042C31.0315 9.88867 32.0264 10.8836 32.0264 12.1109C32.0264 13.3382 31.0315 14.3332 29.8042 14.3332Z" fill="#C0BAF3" stroke="#3E22ED" stroke-width="2" stroke-linejoin="round"/>
</svg>
