<svg width="35" height="44" viewBox="0 0 35 44" fill="none" xmlns="http://www.w3.org/2000/svg">
<path d="M30.5 7H4.5C3.11929 7 2 5.88071 2 4.5C2 3.11929 3.11929 2 4.5 2H30.5C31.8807 2 33 3.11929 33 4.5C33 5.88071 31.8807 7 30.5 7Z" stroke="#3E22ED" stroke-width="3" stroke-linejoin="round"/>
<path d="M30.5 17H4.5C3.11929 17 2 15.8807 2 14.5C2 13.1193 3.11929 12 4.5 12H30.5C31.8807 12 33 13.1193 33 14.5C33 15.8807 31.8807 17 30.5 17Z" stroke="#3E22ED" stroke-width="3" stroke-linejoin="round"/>
<path d="M2 39.37V25.8887C2 24.2318 3.34315 22.8887 5 22.8887H30C31.6569 22.8887 33 24.2318 33 25.8887V39.37C33 41.7484 30.3646 43.181 28.3686 41.8877L19.1314 35.9023C18.1389 35.2592 16.8611 35.2592 15.8686 35.9023L6.63136 41.8877C4.63538 43.181 2 41.7484 2 39.37Z" stroke="#3E22ED" stroke-width="3" stroke-linejoin="round"/>
</svg>
