<svg width="42" height="40" viewBox="0 0 42 40" fill="none" xmlns="http://www.w3.org/2000/svg">
<path d="M39.9426 5.71612C39.9089 5.20801 39.5742 4.76947 39.093 4.60292C38.6118 4.43637 38.0776 4.57418 37.737 4.95276C36.8615 5.92596 35.7549 6.58542 34.6318 6.8861C33.0699 5.42786 30.9712 4.53325 28.6649 4.53325C23.7152 4.53325 19.7061 8.55145 19.7061 13.504V14.6182C12.1282 14.0326 8.07589 8.27616 6.98243 5.35577C6.80569 4.88371 6.36587 4.56138 5.86251 4.53499C5.35915 4.5086 4.88804 4.78317 4.6629 5.23415C2.01119 10.5458 1.60263 15.6975 3.52988 20.0844C5.21814 23.9273 8.6134 26.9885 13.4255 29.0165C11.2385 30.5664 7.5576 32.3999 3.26676 32.3999C2.70875 32.3999 2.21647 32.7651 2.05458 33.2991C1.89269 33.8331 2.09932 34.4102 2.56339 34.72C6.67779 37.4672 10.9899 37.4669 15.0007 37.4666L15.1234 37.4666C27.4371 37.4666 37.4159 27.4695 37.4159 15.1416V13.9299C38.3366 12.9941 39.0534 12.0362 39.4927 10.7979C39.9829 9.41609 40.0817 7.81386 39.9426 5.71612Z" fill="#C0BAF3"/>
<path d="M39.6092 4L41.1059 3.90077C41.066 3.29905 40.6697 2.77973 40.0998 2.5825C39.5299 2.38527 38.8974 2.54847 38.4941 2.99679L39.6092 4ZM38.4467 11.8904C38.4467 11.062 37.7751 10.3904 36.9467 10.3904C36.1182 10.3904 35.4467 11.062 35.4467 11.8904H38.4467ZM20.9714 12.1096L19.4714 12.1096L19.4714 12.1096L20.9714 12.1096ZM20.9714 14.6667L22.4714 14.6667L22.4714 14.6667L20.9714 14.6667ZM19.4714 15.5C19.4714 16.3284 20.1429 17 20.9714 17C21.7998 17 22.4714 16.3284 22.4714 15.5L19.4714 15.5ZM2.3335 33.3333V31.8333C1.67269 31.8333 1.08973 32.2658 0.898013 32.8981C0.706297 33.5305 0.950996 34.2139 1.50056 34.5808L2.3335 33.3333ZM4.99605 4L6.40081 3.47403C6.1915 2.91502 5.67068 2.53331 5.07459 2.50206C4.4785 2.4708 3.92061 2.79595 3.65399 3.33001L4.99605 4ZM15.6463 28L16.7077 29.0598C17.0748 28.6922 17.2255 28.1608 17.1061 27.6551C16.9866 27.1495 16.6141 26.7417 16.1213 26.5772L15.6463 28ZM34.9096 6.59568L33.797 7.60171L34.3375 8.19944L35.1343 8.07877L34.9096 6.59568ZM38.1125 4.09923C38.2495 6.16499 38.1208 7.39759 37.7958 8.31376C37.4819 9.19858 36.9332 9.93544 35.9089 10.917L37.9845 13.083C39.1603 11.9563 40.0848 10.8343 40.6232 9.31674C41.1504 7.83055 41.2529 6.11729 41.1059 3.90077L38.1125 4.09923ZM38.4467 13.8333V11.8904H35.4467V13.8333H38.4467ZM19.4714 12.1096L19.4714 14.6667L22.4714 14.6667L22.4714 12.1096L19.4714 12.1096ZM19.4714 14.6667L19.4714 15.5L22.4714 15.5L22.4714 14.6667L19.4714 14.6667ZM29.0684 2.5C23.7659 2.5 19.4714 6.80455 19.4714 12.1096H22.4714C22.4714 8.45703 25.4271 5.5 29.0684 5.5V2.5ZM35.4467 13.8333C35.4467 25.2494 26.207 34.5 14.8142 34.5V37.5C27.8682 37.5 38.4467 26.9019 38.4467 13.8333H35.4467ZM3.59129 4.52597C5.055 8.43523 10.5447 16.1667 20.9714 16.1667V13.1667C12.2276 13.1667 7.59965 6.67588 6.40081 3.47403L3.59129 4.52597ZM3.65399 3.33001C0.846634 8.95341 0.404409 14.4292 2.45786 19.1033C4.50611 23.7656 8.90617 27.3312 15.1713 29.4228L16.1213 26.5772C10.4049 24.6688 6.81726 21.5677 5.2045 17.8967C3.59694 14.2375 3.82036 9.71326 6.3381 4.66999L3.65399 3.33001ZM14.5848 26.9402C13.0003 28.5271 8.21303 31.8333 2.3335 31.8333V34.8333C9.23421 34.8333 14.7422 31.0285 16.7077 29.0598L14.5848 26.9402ZM36.0223 5.58965C34.3086 3.69449 31.827 2.5 29.0684 2.5V5.5C30.9431 5.5 32.6276 6.30841 33.797 7.60171L36.0223 5.58965ZM35.1343 8.07877C37.202 7.76561 39.2152 6.68083 40.7244 5.00321L38.4941 2.99679C37.4312 4.17822 36.0393 4.90749 34.685 5.11259L35.1343 8.07877ZM1.50056 34.5808C5.92339 37.5339 10.5613 37.5 14.8142 37.5V34.5C10.4622 34.5 6.73126 34.4661 3.16644 32.0859L1.50056 34.5808Z" fill="#3E22ED"/>
</svg>
