<svg width="134" height="91" viewBox="0 0 134 91" fill="none" xmlns="http://www.w3.org/2000/svg">
<path d="M75.4613 10.3685L61.9229 2.56152L118.897 82.1931L131.307 88.4387L75.4613 10.3685Z" fill="#C0B8F5"/>
<path d="M60.2308 1L74.3519 9.26829C74.7116 9.47893 75.0235 9.76224 75.2677 10.1001L133 90H14.7345C14.2356 90 13.7446 89.8756 13.3059 89.638L1 82.9737L60.2308 1Z" class="up-arrow"/>
<path d="M60.2308 1L74.3519 9.26829C74.7116 9.47893 75.0235 9.76224 75.2677 10.1001L133 90M60.2308 1L1 82.9737M60.2308 1L118.897 82.9737M133 90H14.7345C14.2356 90 13.7446 89.8756 13.3059 89.638L1 82.9737M133 90L118.897 82.9737M1 82.9737H118.897" stroke="#3E22ED" stroke-width="2" stroke-linecap="round" stroke-linejoin="round" class="up-arrow"/>
<path d="M129.616 89.2193L118.898 83.7544H3.8208L13.9746 89.2193H129.616Z" fill="#C0B8F5"/>
</svg>
